<svg viewBox="0 0 500 300" xmlns="http://www.w3.org/2000/svg">
  <rect x="34.434" y="27.627" width="432.655" height="30.735" style="fill: rgb(216, 216, 216); stroke: rgb(0, 0, 0);"></rect>
  <text style="white-space: pre; fill: rgb(51, 51, 51); font-family: Arial, sans-serif; font-size: 22.1px;" x="215.692" y="50.481">SCENA</text>
  <text style="white-space: pre; fill: rgb(51, 51, 51); font-family: Arial, sans-serif; font-size: 22.1px;" x="10.004" y="126.137" class="region">A</text>
  <rect x="41.706" y="109.466" width="20.228" height="19.506" style="fill: rgb(216, 216, 216); stroke: rgb(0, 0, 0);" class="chair" id="A.1"></rect>
  <rect x="71.056" y="109.396" width="20.228" height="19.506" style="fill: rgb(216, 216, 216); stroke: rgb(0, 0, 0);" id="A.2" class="chair"></rect>
  <rect x="100.651" y="109.412" width="20.228" height="19.506" style="fill: rgb(216, 216, 216); stroke: rgb(0, 0, 0);" id="A.3" class="chair"></rect>
  <rect x="129.84" y="109.555" width="20.228" height="19.506" style="fill: rgb(216, 216, 216); stroke: rgb(0, 0, 0);" id="A.4" class="chair"></rect>
  <rect x="159.19" y="109.654" width="20.228" height="19.506" style="fill: rgb(216, 216, 216); stroke: rgb(0, 0, 0);" id="A.5" class="chair"></rect>
  <rect x="188.785" y="109.67" width="20.228" height="19.506" style="fill: rgb(216, 216, 216); stroke: rgb(0, 0, 0);" id="A.6" class="chair"></rect>
  <rect x="219.721" y="109.722" width="20.228" height="19.506" style="fill: rgb(216, 216, 216); stroke: rgb(0, 0, 0);" class="chair" id="A.7"></rect>
  <rect x="249.071" y="109.652" width="20.228" height="19.506" style="fill: rgb(216, 216, 216); stroke: rgb(0, 0, 0);" id="A.8" class="chair"></rect>
  <rect x="278.666" y="109.668" width="20.228" height="19.506" style="fill: rgb(216, 216, 216); stroke: rgb(0, 0, 0);" id="A.9" class="chair"></rect>
  <rect x="307.855" y="109.811" width="20.228" height="19.506" style="fill: rgb(216, 216, 216); stroke: rgb(0, 0, 0);" id="A.10" class="chair"></rect>
  <rect x="337.205" y="109.91" width="20.228" height="19.506" style="fill: rgb(216, 216, 216); stroke: rgb(0, 0, 0);" id="A.11" class="chair"></rect>
  <rect x="366.8" y="109.926" width="20.228" height="19.506" style="fill: rgb(216, 216, 216); stroke: rgb(0, 0, 0);" id="A.12" class="chair"></rect>
  <rect x="396.639" y="110.288" width="20.228" height="19.506" style="fill: rgb(216, 216, 216); stroke: rgb(0, 0, 0);" id="A.13" class="chair"></rect>
  <rect x="426.234" y="110.304" width="20.228" height="19.506" style="fill: rgb(216, 216, 216); stroke: rgb(0, 0, 0);" id="A.14" class="chair"></rect>
  <rect x="455.562" y="110.803" width="20.228" height="19.506" style="fill: rgb(216, 216, 216); stroke: rgb(0, 0, 0);" id="A.15" class="chair"></rect>
  <text style="white-space: pre; fill: rgb(51, 51, 51); font-family: Arial, sans-serif; font-size: 22.1px;" x="10.38" y="170.261" class="region">B<tspan x="10.380000114440918" dy="1em">​</tspan><tspan x="10.380000114440918" dy="1em">​</tspan></text>
  <rect x="42.082" y="153.59" width="20.228" height="19.506" style="fill: rgb(216, 216, 216); stroke: rgb(0, 0, 0);" class="chair" id="B.1"></rect>
  <rect x="71.432" y="153.52" width="20.228" height="19.506" style="fill: rgb(216, 216, 216); stroke: rgb(0, 0, 0);" id="B.2" class="chair"></rect>
  <rect x="101.027" y="153.536" width="20.228" height="19.506" style="fill: rgb(216, 216, 216); stroke: rgb(0, 0, 0);" id="B.3" class="chair"></rect>
  <rect x="130.216" y="153.679" width="20.228" height="19.506" style="fill: rgb(216, 216, 216); stroke: rgb(0, 0, 0);" id="B.4" class="chair"></rect>
  <rect x="159.566" y="153.778" width="20.228" height="19.506" style="fill: rgb(216, 216, 216); stroke: rgb(0, 0, 0);" id="B.5" class="chair"></rect>
  <rect x="189.161" y="153.794" width="20.228" height="19.506" style="fill: rgb(216, 216, 216); stroke: rgb(0, 0, 0);" id="B.6" class="chair"></rect>
  <rect x="220.097" y="153.846" width="20.228" height="19.506" style="fill: rgb(216, 216, 216); stroke: rgb(0, 0, 0);" class="chair" id="B.6"></rect>
  <rect x="249.447" y="153.776" width="20.228" height="19.506" style="fill: rgb(216, 216, 216); stroke: rgb(0, 0, 0);" id="B.8" class="chair"></rect>
  <rect x="279.042" y="153.792" width="20.228" height="19.506" style="fill: rgb(216, 216, 216); stroke: rgb(0, 0, 0);" id="B.9" class="chair"></rect>
  <rect x="308.231" y="153.935" width="20.228" height="19.506" style="fill: rgb(216, 216, 216); stroke: rgb(0, 0, 0);" id="B.10" class="chair"></rect>
  <rect x="337.581" y="154.034" width="20.228" height="19.506" style="fill: rgb(216, 216, 216); stroke: rgb(0, 0, 0);" id="B.11" class="chair"></rect>
  <rect x="367.176" y="154.05" width="20.228" height="19.506" style="fill: rgb(216, 216, 216); stroke: rgb(0, 0, 0);" id="B.12" class="chair"></rect>
  <rect x="397.015" y="154.412" width="20.228" height="19.506" style="fill: rgb(216, 216, 216); stroke: rgb(0, 0, 0);" id="B.13" class="chair"></rect>
  <rect x="426.61" y="154.428" width="20.228" height="19.506" style="fill: rgb(216, 216, 216); stroke: rgb(0, 0, 0);" id="B.14" class="chair"></rect>
  <rect x="455.938" y="154.927" width="20.228" height="19.506" style="fill: rgb(216, 216, 216); stroke: rgb(0, 0, 0);" id="B.15" class="chair"></rect>
  <text style="white-space: pre; fill: rgb(51, 51, 51); font-family: Arial, sans-serif; font-size: 22.1px;" x="9.365" y="209.822" class="region">C<tspan x="9.364999771118164" dy="1em">​</tspan><tspan x="9.364999771118164" dy="1em">​</tspan></text>
  <rect x="41.067" y="193.151" width="20.228" height="19.506" style="fill: rgb(216, 216, 216); stroke: rgb(0, 0, 0);" class="chair" id="C.1"></rect>
  <rect x="70.417" y="193.081" width="20.228" height="19.506" style="fill: rgb(216, 216, 216); stroke: rgb(0, 0, 0);" id="C.2" class="chair"></rect>
  <rect x="100.012" y="193.097" width="20.228" height="19.506" style="fill: rgb(216, 216, 216); stroke: rgb(0, 0, 0);" id="C.3" class="chair"></rect>
  <rect x="129.201" y="193.24" width="20.228" height="19.506" style="fill: rgb(216, 216, 216); stroke: rgb(0, 0, 0);" id="C.4" class="chair"></rect>
  <rect x="158.551" y="193.339" width="20.228" height="19.506" style="fill: rgb(216, 216, 216); stroke: rgb(0, 0, 0);" id="C.5" class="chair"></rect>
  <rect x="188.146" y="193.355" width="20.228" height="19.506" style="fill: rgb(216, 216, 216); stroke: rgb(0, 0, 0);" id="C.6" class="chair"></rect>
  <rect x="219.082" y="193.407" width="20.228" height="19.506" style="fill: rgb(216, 216, 216); stroke: rgb(0, 0, 0);" class="chair" id="C.7"></rect>
  <rect x="248.432" y="193.337" width="20.228" height="19.506" style="fill: rgb(216, 216, 216); stroke: rgb(0, 0, 0);" id="C.8" class="chair"></rect>
  <rect x="278.027" y="193.353" width="20.228" height="19.506" style="fill: rgb(216, 216, 216); stroke: rgb(0, 0, 0);" id="C.9" class="chair"></rect>
  <rect x="307.216" y="193.496" width="20.228" height="19.506" style="fill: rgb(216, 216, 216); stroke: rgb(0, 0, 0);" id="C.10" class="chair"></rect>
  <rect x="336.566" y="193.595" width="20.228" height="19.506" style="fill: rgb(216, 216, 216); stroke: rgb(0, 0, 0);" id="C.11" class="chair"></rect>
  <rect x="366.161" y="193.611" width="20.228" height="19.506" style="fill: rgb(216, 216, 216); stroke: rgb(0, 0, 0);" id="C.12" class="chair"></rect>
  <rect x="396" y="193.973" width="20.228" height="19.506" style="fill: rgb(216, 216, 216); stroke: rgb(0, 0, 0);" id="C.13" class="chair"></rect>
  <rect x="425.595" y="193.989" width="20.228" height="19.506" style="fill: rgb(216, 216, 216); stroke: rgb(0, 0, 0);" id="C.14" class="chair"></rect>
  <rect x="454.923" y="194.488" width="20.228" height="19.506" style="fill: rgb(216, 216, 216); stroke: rgb(0, 0, 0);" id="C.15" class="chair"></rect>
  <text style="white-space: pre; fill: rgb(51, 51, 51); font-family: Arial, sans-serif; font-size: 22.1px;" x="9.872" y="249.89" class="region">D<tspan x="9.871999740600586" dy="1em">​</tspan><tspan x="9.871999740600586" dy="1em">​</tspan></text>
  <rect x="41.574" y="233.219" width="20.228" height="19.506" style="fill: rgb(216, 216, 216); stroke: rgb(0, 0, 0);" class="chair" id="D.1"></rect>
  <rect x="70.924" y="233.149" width="20.228" height="19.506" style="fill: rgb(216, 216, 216); stroke: rgb(0, 0, 0);" id="D.2" class="chair"></rect>
  <rect x="100.519" y="233.165" width="20.228" height="19.506" style="fill: rgb(216, 216, 216); stroke: rgb(0, 0, 0);" id="D.3" class="chair"></rect>
  <rect x="130.215" y="233.308" width="20.228" height="19.506" style="fill: rgb(216, 216, 216); stroke: rgb(0, 0, 0);" id="D.4" class="chair"></rect>
  <rect x="159.058" y="233.407" width="20.228" height="19.506" style="fill: rgb(216, 216, 216); stroke: rgb(0, 0, 0);" id="D.5" class="chair"></rect>
  <rect x="188.653" y="233.423" width="20.228" height="19.506" style="fill: rgb(216, 216, 216); stroke: rgb(0, 0, 0);" id="D.6" class="chair"></rect>
  <rect x="219.589" y="233.475" width="20.228" height="19.506" style="fill: rgb(216, 216, 216); stroke: rgb(0, 0, 0);" class="chair" id="D.7"></rect>
  <rect x="248.939" y="233.405" width="20.228" height="19.506" style="fill: rgb(216, 216, 216); stroke: rgb(0, 0, 0);" id="D.8" class="chair"></rect>
  <rect x="278.534" y="233.421" width="20.228" height="19.506" style="fill: rgb(216, 216, 216); stroke: rgb(0, 0, 0);" id="D.9" class="chair"></rect>
  <rect x="307.723" y="233.564" width="20.228" height="19.506" style="fill: rgb(216, 216, 216); stroke: rgb(0, 0, 0);" id="D.10" class="chair"></rect>
  <rect x="337.073" y="233.663" width="20.228" height="19.506" style="fill: rgb(216, 216, 216); stroke: rgb(0, 0, 0);" id="D.11" class="chair"></rect>
  <rect x="366.668" y="233.679" width="20.228" height="19.506" style="fill: rgb(216, 216, 216); stroke: rgb(0, 0, 0);" id="D.12" class="chair"></rect>
  <rect x="396.507" y="234.041" width="20.228" height="19.506" style="fill: rgb(216, 216, 216); stroke: rgb(0, 0, 0);" id="D.13" class="chair"></rect>
  <rect x="426.102" y="234.057" width="20.228" height="19.506" style="fill: rgb(216, 216, 216); stroke: rgb(0, 0, 0);" id="D.14" class="chair"></rect>
  <rect x="455.43" y="234.556" width="20.228" height="19.506" style="fill: rgb(216, 216, 216); stroke: rgb(0, 0, 0);" id="D.15" class="chair"></rect>
</svg>